<svg width="70" height="75" viewBox="0 0 70 75" fill="none" xmlns="http://www.w3.org/2000/svg">
<g opacity="0.5">
<path d="M69.8051 38.1314C70.0188 40.9175 70.1237 43.7425 69.673 46.5131C69.4632 47.9236 69.1251 49.3147 68.7754 50.6981C68.2663 52.7537 67.7456 54.8131 66.9179 56.7677C65.624 59.9152 64.0191 63.0394 61.6177 65.5147C60.4209 66.6649 59.0803 67.5741 57.6736 68.4446C56.2669 69.3033 54.6893 69.824 53.1544 70.4069C50.0924 71.7397 46.9216 72.8394 43.6653 73.6282C39.694 74.5453 35.61 74.9611 31.5338 74.996C28.1997 74.9494 24.8851 74.3005 21.7143 73.3018C19.6004 72.6335 17.6031 71.6776 15.6486 70.6556C13.3715 69.5132 11.1449 68.2231 9.34191 66.4162C7.78759 64.8968 6.25658 63.3192 5.14523 61.4501C4.60122 60.5447 4.13881 59.5927 3.68028 58.6407C2.89924 57.0086 2.08322 55.3882 1.51589 53.6668C-0.407587 48.1296 -0.3493 42.1066 0.828101 36.4177C1.94333 31.0786 3.98338 25.9027 7.127 21.3913C8.80567 18.986 10.869 16.8566 13.1539 15.003C14.8636 13.608 16.6705 12.3063 18.6251 11.261C24.2518 8.34664 31.2384 7.28193 37.549 7.21198C39.7289 7.19255 41.8933 7.44513 44.0228 7.89588C46.8711 8.4127 49.6183 9.38804 52.1752 10.717C54.7165 12.112 57.0558 13.8373 59.2124 15.7569C61.3379 17.5988 63.2964 19.6699 64.8818 21.9819C68.0798 26.7576 69.3466 32.5008 69.8051 38.1314Z" fill="white"/>
<path d="M69.1784 46.4395L69.1794 46.4328C69.6203 43.7234 69.5196 40.9474 69.3066 38.1696C68.8511 32.5798 67.5966 26.936 64.4681 22.2628C62.9123 19.9943 60.9854 17.9549 58.8849 16.1347L58.8799 16.1304L58.88 16.1304C56.7474 14.2322 54.4402 12.5313 51.9395 11.158C49.425 9.85167 46.7269 8.89471 43.9335 8.38785L43.9263 8.38655L43.9192 8.38505C41.8199 7.94067 39.6922 7.69295 37.554 7.71196C31.2853 7.78149 24.3876 8.84028 18.858 11.7035C16.9428 12.728 15.1643 14.008 13.47 15.3904L13.4689 15.3913C11.2148 17.2199 9.18526 19.3158 7.53723 21.6772L69.1784 46.4395ZM69.1784 46.4395C68.9726 47.8228 68.6403 49.1924 68.2906 50.5755L68.29 50.5779M69.1784 46.4395L68.29 50.5779M68.29 50.5779C67.78 52.6376 67.2675 54.6599 66.4575 56.5727L66.4555 56.5776M68.29 50.5779L66.4555 56.5776M66.4555 56.5776C65.1711 59.7017 63.597 62.7539 61.2649 65.1603C60.1084 66.2703 58.8061 67.1558 57.4118 68.0186C56.2793 68.7097 55.0352 69.1722 53.7439 69.6523C53.4899 69.7467 53.2341 69.8418 52.9769 69.9395L52.9658 69.9437M66.4555 56.5776L52.9658 69.9437M52.9658 69.9437L52.9548 69.9485C49.9169 71.2708 46.7742 72.3605 43.5497 73.1418C39.6218 74.0485 35.5777 74.461 31.5351 74.496M52.9658 69.9437L31.5351 74.496M31.5351 74.496C28.2625 74.4496 24.999 73.8121 21.8649 72.825C19.7932 72.17 17.8266 71.2302 15.8803 70.2125L15.8803 70.2124L15.8728 70.2087C13.6083 69.0726 11.4405 67.8114 9.69584 66.063L9.69587 66.063L9.69142 66.0586C8.13795 64.5401 6.64974 63.0021 5.57501 61.1946L5.57382 61.1926C5.04347 60.3099 4.59043 59.3781 4.13101 58.4242C4.03663 58.227 3.94211 58.0307 3.84788 57.835C3.1555 56.3969 2.47899 54.9917 1.99076 53.5103L1.99082 53.5103L1.9882 53.5028C0.102459 48.0741 0.152914 42.1474 1.31761 36.5196C2.42135 31.2357 4.43803 26.1249 7.53714 21.6773L31.5351 74.496Z" stroke="#001D4C" stroke-opacity="0.2"/>
<path d="M62.1111 45.7592C62.8688 46.8084 63.0787 48.2034 62.9077 49.4663C62.7406 50.702 61.9984 51.7744 61.0619 52.5672C60.8404 52.7809 60.207 53.2239 59.5387 53.5464C59.6125 53.7446 59.6708 53.9427 59.7097 54.0671C60.6073 56.5151 58.9442 58.8 57.4015 60.5642C56.4534 61.6716 55.5557 62.8373 54.8641 64.1197C54.5299 64.7686 54.3744 65.503 53.9781 66.1209C52.9678 67.6868 50.9472 67.5508 49.4434 66.832C48.367 66.3346 47.3878 65.6351 46.4785 64.8774C46.02 64.4772 45.6119 63.9798 45.0757 63.6845C44.1159 63.937 43.1134 64.007 42.1186 63.8865C41.1666 63.7389 40.1951 63.7272 39.2548 63.5174C38.4582 63.3075 37.6422 63.2065 36.8339 63.0355C35.9907 62.7752 35.1513 62.4837 34.2654 62.4138C32.2681 62.1301 30.1892 62.1185 28.2579 61.5162C27.0922 61.1742 26.0197 60.6069 24.9666 60.0085C23.696 59.3246 22.503 58.5435 21.4772 57.5216C20.0356 56.2315 18.2481 55.3611 17.0007 53.8495C15.8894 52.6915 15.1317 51.2654 14.4244 49.8393C14.098 49.1243 13.8144 48.3821 13.6201 47.6205C13.4064 46.7812 13.4374 45.8136 13.3986 44.9937C13.3753 44.6673 13.3286 44.3448 13.2509 44.0261C11.5334 42.7905 10.321 40.8242 9.57884 38.8658C9.08534 37.5679 9.097 36.1652 9.31849 34.809C9.44672 33.8142 9.58661 32.7495 9.79644 31.7936C9.98685 30.9582 10.0179 30.0994 9.95188 29.2445C9.92856 28.9298 9.89359 28.615 9.83141 28.3042C9.82364 28.2575 9.8081 28.1876 9.78867 28.1099C9.46615 27.9894 9.12031 27.9389 8.7939 27.8223C7.01809 27.2977 6.78883 25.9649 6.17487 24.4572C4.79929 22.526 4.31745 20.1595 4.02602 17.8475C3.63743 13.6003 4.02602 9.04609 6.24093 5.3196C7.25512 3.77694 8.73173 2.78994 10.2822 4.35204C11.2109 5.20303 11.7782 6.361 12.1707 7.5384C13.0139 9.61342 13.8999 11.7584 15.3531 13.4798C15.9166 14.0938 16.4723 14.6572 17.1601 15.0652C17.3854 14.9176 17.6147 14.7699 17.8401 14.6145C18.8854 13.8878 20.1055 13.5031 21.3256 13.1845C22.1727 12.9824 23.0121 12.7337 23.8708 12.5783C25.0249 12.4073 26.179 12.2208 27.3409 12.1159C28.4872 12.0537 29.6413 12.011 30.7876 12.0382C32.8587 12.1392 34.9104 12.5977 36.8417 13.3516C37.238 12.0887 37.6422 10.8219 37.7238 9.49296C37.9452 7.7016 37.953 5.90247 37.9064 4.09946C37.8831 3.14744 37.7626 2.1449 38.1862 1.25505C39.01 -0.687857 40.9062 -0.046699 42.2041 1.01801C42.7287 1.45711 43.1639 1.98558 43.5641 2.53348C45.3322 5.19914 46.8515 8.17956 47.1235 11.4126C47.1857 12.0459 47.2168 12.6871 47.174 13.3244C47.1274 14.152 46.9526 14.972 46.9914 15.8035C47.0808 16.5535 47.4227 17.2607 47.3916 18.0301C47.4422 19.8953 46.5756 21.6322 45.6469 23.1982C45.1884 23.9443 44.6483 24.636 44.0809 25.2849C44.0188 25.3471 43.9488 25.4248 43.875 25.5103C44.1742 26.1126 44.4656 26.8081 44.5006 26.882C46.0238 30.3598 46.8049 33.7676 45.6586 37.498C46.529 37.9604 47.4538 38.314 48.297 38.8308C49.6338 39.6663 50.92 40.5872 52.1362 41.5859C53.096 42.4407 53.9587 43.4083 54.697 44.4575C55.1322 45.0637 55.5363 45.7048 55.8821 46.3732C56.3601 45.6893 57.0013 45.1064 57.7745 44.7916C58.5089 44.5352 59.325 44.3448 60.1021 44.4963C60.8909 44.6712 61.6409 45.0986 62.1111 45.7592Z" fill="#FFCC00"/>
<path d="M13.317 18.2243C13.4491 18.0067 13.282 17.7075 13.0294 17.7036C11.7316 16.6233 10.4881 15.2749 10.1656 13.5574C9.94799 12.4267 9.99462 11.2648 9.73815 10.1418C9.48557 9.08097 8.44806 8.10175 7.47661 9.08097C6.76551 9.86202 6.48184 10.9345 6.26035 11.9448C5.88732 13.5613 5.88732 15.2439 6.22927 16.8642C6.64893 18.8849 7.51158 20.9599 9.02316 22.4171C9.3418 22.6968 9.63712 23.0738 10.0607 23.1826C10.3327 23.2137 10.5075 22.9689 10.6008 22.7435C10.7329 22.4754 10.8573 22.2033 10.9777 21.9352C11.3313 21.1775 11.6344 20.4159 12.0891 19.7048C12.3533 19.3162 12.6797 18.9665 12.9906 18.609C13.0955 18.4924 13.2315 18.3642 13.317 18.2243ZM39.8143 16.0832C39.8687 16.3202 40.098 16.464 40.2418 16.6505C40.5332 16.9769 40.778 17.3461 41.0345 17.6997C41.2948 18.0883 41.528 18.4963 41.7378 18.916C41.9088 19.2074 41.9865 19.6698 42.3673 19.7514C42.6238 19.7903 42.7792 19.561 42.8686 19.3551C43.0862 18.9432 43.3115 18.5313 43.5019 18.1038C44.2208 16.4485 44.6522 14.6416 44.6755 12.8308C44.6522 11.1676 44.5123 7.88414 43.2416 6.73005C42.9074 6.37645 42.3673 6.12387 41.9127 6.40365C41.1588 6.98652 41.3142 8.24552 41.287 9.1004C41.2832 9.94751 41.256 10.7946 41.1433 11.6301C40.9684 12.8269 40.6653 13.9693 40.1174 15.069C40.0047 15.2944 39.8299 15.5664 39.6744 15.7956C39.5773 15.92 39.655 16.1104 39.8143 16.0832ZM15.6368 53.76C15.6329 53.7522 15.629 53.7483 15.6252 53.7406C15.6213 53.7328 15.6135 53.725 15.6057 53.7134C15.6174 53.7328 15.6252 53.7445 15.6368 53.76ZM45.3477 48.7201C45.1962 47.1619 44.8659 45.6192 44.318 44.1504C43.91 42.938 43.2416 41.8189 42.9346 40.5716C42.8064 39.9576 42.8569 39.3281 42.8375 38.7025C42.8064 37.6533 42.7015 36.6003 42.4567 35.5822C41.8155 32.765 40.1951 30.7405 38.1706 28.7781C37.3973 28.0087 36.6668 27.2005 35.8508 26.47C34.2693 25.0944 32.6023 23.8043 31.2306 22.2033C29.7578 20.5014 28.5804 18.4069 28.359 16.1376C28.2579 15.0379 28.7164 13.9654 28.6154 12.8696C28.4755 11.6417 27.0145 12.0303 26.1984 12.2596C25.4096 12.4616 24.7374 12.9707 24.2245 13.5924C22.165 15.85 23.0315 17.7696 22.608 20.4392C22.4758 21.5738 22.1766 22.6619 21.6676 23.6877C21.007 24.9118 20.1871 26.0542 19.27 27.0995C16.6704 30.0255 13.5424 32.3803 12.6447 36.4215C12.2251 38.0924 12.3533 39.8527 12.8351 41.4964C13.1227 42.5533 13.6473 43.5403 14.3195 44.4107C14.0359 44.3719 13.7211 44.3447 13.5074 44.3874C13.4763 44.2942 13.4374 44.232 13.3869 44.2203C13.146 44.2048 13.1732 44.5817 13.146 44.7566C12.9828 46.2254 13.0372 47.737 13.4569 49.1592C13.9465 50.7796 14.7042 52.3261 15.6252 53.7406C15.7223 53.8921 15.8272 54.0398 15.9399 54.1836C15.8078 54.7781 15.6757 55.3765 15.629 55.9866C15.5513 56.9036 15.6951 57.8207 15.6446 58.7377C15.5436 59.7869 15.2754 60.8361 14.8014 61.7803C14.1291 63.1248 13.1071 64.5159 13.3286 66.0975C13.6434 67.8305 15.5513 69.0157 17.1989 69.2255C18.5473 69.4548 19.919 69.21 21.2207 68.8641C22.8566 68.4328 24.2944 67.7955 25.2697 66.3112C26.1402 65.0483 26.657 63.6066 27.0417 62.13C28.1219 62.8683 29.5092 63.0082 30.7915 63.0937C30.8964 63.0937 31.0168 63.0976 31.149 63.1015C31.1179 63.1792 31.0868 63.253 31.0518 63.3308C30.5156 64.7879 29.9405 66.4938 30.7915 67.9432C31.6114 69.1245 33.1307 69.583 34.5141 69.6024C35.334 69.6063 36.1539 69.5209 36.966 69.3887C37.6033 69.2838 38.2483 69.1439 38.8234 68.8486C39.2159 68.666 39.5617 68.4095 39.8881 68.1258C40.7391 67.407 41.5008 66.5288 41.8039 65.4369C42.3828 63.5056 42.3518 61.4345 43.0007 59.5149C43.5719 57.9373 44.283 56.414 44.7648 54.8053C45.3322 52.8391 45.4954 50.7563 45.3477 48.7201ZM53.1504 63.0354C52.6064 62.8373 52.0546 62.6818 51.5145 62.4642C50.7801 62.2311 50.1428 61.7959 49.4589 61.4578C48.8449 61.1702 48.1572 61.0265 47.4771 61.0381C46.3075 61.1197 45.0213 61.7803 44.6949 62.981C44.6288 63.1248 44.4617 64.5276 44.8464 64.1312C44.9125 63.8981 44.9552 63.6494 45.0485 63.4201C44.9125 64.7063 45.6158 66.2451 46.5096 67.1505C47.2246 67.8033 48.0794 68.2968 49.0237 68.5921C49.6882 68.8331 50.3759 69.0157 51.0793 69.0701C52.3461 69.1906 53.6828 69.0118 54.1141 67.6207C54.2734 66.8552 54.1374 66.0586 54.2307 65.2814C54.3744 64.3994 54.0908 63.3852 53.1504 63.0354Z" fill="#FFFBEA"/>
<path d="M16.1495 28.0477C15.3451 27.8029 14.0628 28.4713 13.6509 29.1707C13.3284 29.9013 13.8685 30.4997 14.6185 30.4997C15.2285 30.5385 15.8813 30.3948 16.3399 29.9712C17.0043 29.4155 17.1132 28.3275 16.1495 28.0477ZM39.0058 25.6657C38.5434 25.4559 38.0071 25.487 37.5331 25.6385C37.1989 25.6813 36.8569 25.7745 36.6044 26.0116C35.7378 26.9364 36.7443 27.5503 37.6691 27.6281C38.1742 27.6863 38.7454 27.6086 39.1301 27.2511C39.647 26.8353 39.678 25.9455 39.0058 25.6657Z" fill="#FFC2BF"/>
<path d="M16.8883 24.2592C16.3443 25.1529 16.6862 26.75 17.8131 26.9792C19.1848 27.1619 19.6861 25.7435 19.2625 24.6322C18.905 23.5325 17.5178 23.2022 16.8883 24.2592ZM36.2591 23.583C36.1347 22.3435 34.7475 21.9393 33.9703 22.8875C33.3913 23.6802 33.6323 25.0907 34.5882 25.4715C35.7967 25.7746 36.4145 24.6516 36.2591 23.583Z" fill="black"/>
<path d="M32.3456 40.0199C31.6461 40.4279 30.834 40.6183 30.0257 40.5911C28.9416 40.5484 28.0828 39.8256 27.5272 38.9396C27.5738 38.4267 27.4883 37.9021 27.3795 37.4009C27.2513 36.682 27.1269 35.9553 27.0686 35.2248C27.022 34.5254 27.0298 33.8065 27.0103 33.107C26.987 33.0177 27.0142 32.6874 26.9948 32.4309C27.5038 32.3921 28.0129 32.4037 28.518 32.4309C29.3146 32.4892 30.1462 32.6135 30.9039 32.2833C31.5257 32.0151 32.023 31.51 32.2756 30.8805C32.7613 29.707 31.9881 28.4363 31.1293 27.6553C30.4765 27.1035 29.6566 26.7848 28.8134 26.6566C26.5946 26.3302 24.0999 27.154 22.5028 28.7277C21.271 29.9712 21.3992 32.4309 23.2528 32.9749C24.4107 33.3402 25.4754 32.7262 26.5946 32.4737C26.6062 32.4737 26.614 32.4698 26.6256 32.4698C26.478 33.0293 26.5168 33.6472 26.4858 34.2223C26.4586 35.3336 26.5946 36.4411 26.7927 37.533C27.0026 38.3879 27.1813 39.4409 26.5285 40.1714C25.8446 40.8398 24.9198 41.2672 23.96 41.2983C23.3266 41.3838 22.7204 41.2595 22.1686 40.9292C22.0171 40.8243 21.7878 40.8048 21.6829 40.9913C21.3798 41.481 22.8331 41.889 23.1789 41.8812C24.1115 41.9084 25.0985 41.8151 25.8718 41.2478C26.5207 40.8359 27.1813 40.3346 27.3911 39.5575C27.8808 40.6105 28.9338 41.3994 30.1345 41.3683C31.0244 41.3566 32.0386 41.2245 32.7031 40.5833C32.9789 40.3152 32.6797 39.8683 32.3456 40.0199Z" fill="black"/>
<path d="M17.5918 24.263C17.3858 24.263 17.2148 24.434 17.2148 24.6399C17.2148 24.8459 17.3858 25.0169 17.5918 25.0169C17.7977 25.0169 17.9687 24.8459 17.9687 24.6399C17.9687 24.434 17.7977 24.263 17.5918 24.263ZM34.5494 22.9768C34.3785 22.9768 34.2347 23.1206 34.2347 23.2916C34.2347 23.4625 34.3785 23.6063 34.5494 23.6063C34.7204 23.6063 34.8642 23.4625 34.8642 23.2916C34.8642 23.1206 34.7204 22.9768 34.5494 22.9768Z" fill="white"/>
<path d="M25.6236 48.2656C28.5418 48.3899 31.4561 47.9197 34.2306 47.0182C36.2512 46.4315 38.2408 45.5921 39.9544 44.3526C41.0424 43.5365 42.1305 42.6933 42.9853 41.6247C43.3739 41.0885 43.677 40.4939 43.9685 39.8994C44.2599 39.2466 44.5436 38.586 44.8505 37.941C44.8894 37.8633 44.8428 37.7661 44.765 37.7311C44.6951 37.7001 44.6018 37.7273 44.563 37.7972C44.2793 38.3412 43.9957 38.8852 43.7275 39.437C43.3856 40.0626 43.0125 40.661 42.5734 41.2245C41.8973 41.9744 41.1163 42.6273 40.2886 43.2062C39.3754 43.9057 38.4156 44.543 37.3742 45.0326C35.4469 46.0196 33.2436 46.6219 31.122 47.1154C27.7957 47.7643 24.3801 47.7021 21.05 47.0493C19.0293 46.6802 17.1331 45.9691 15.3534 44.9199C14.1488 44.2088 13.0413 43.4083 12.097 42.3164C11.1917 41.2867 10.5544 40.0549 10.1153 38.7609C9.87825 38.0498 9.63733 37.327 9.57904 36.5732C9.52853 35.6445 9.73059 34.7158 9.87825 33.7832C9.88602 33.6782 9.98705 33.2741 9.79665 33.3169C9.73836 33.3402 9.71893 33.4257 9.70339 33.4801C9.66064 33.6161 9.6179 33.7521 9.57516 33.892C9.29538 34.7585 9.05057 35.6561 9.0156 36.5693C9.06612 38.3568 9.81608 40.3657 10.7953 41.8579C11.8367 43.4239 13.3172 44.6129 14.9376 45.5494C18.1434 47.4845 21.9126 48.2151 25.6236 48.2656ZM9.39641 13.0018C9.67619 14.3541 10.3212 15.7491 11.3743 16.6973C11.794 17.0664 12.2603 17.49 12.8198 17.6026C12.8859 17.6065 12.9675 17.6065 13.0141 17.556C13.1579 17.3617 12.5983 17.0392 12.4701 16.8954C10.9663 15.6053 10.2047 13.9888 9.94431 12.0343C9.80053 11.1522 9.77722 10.2157 9.38475 9.39582C9.22543 9.13158 8.87182 8.74689 8.53376 8.84015C8.30061 8.92952 8.3045 9.28313 8.53376 9.37639C9.18657 9.71445 9.10886 10.9929 9.21378 11.6457C9.24486 12.1042 9.30315 12.555 9.39641 13.0018ZM9.72282 29.2173C9.76556 29.8585 9.76556 30.4996 9.75002 31.1408C9.75779 31.4789 10.2474 31.4633 10.2513 31.1408C10.2863 30.3636 10.3368 29.5826 10.2785 28.8054C10.1619 27.4104 10.2319 25.9999 10.4844 24.6243C10.7798 23.2021 11.3238 21.846 11.9649 20.5442C12.474 19.5184 13.1967 18.5469 14.0361 17.7581C14.4518 17.3617 14.8754 16.9926 15.3106 16.6118C15.3844 16.5379 15.536 16.4602 15.5438 16.3359C15.4971 15.8968 14.0438 16.9887 13.8612 17.1636C12.711 18.0806 11.8445 19.3085 11.1994 20.6219C9.75779 23.4586 9.35367 26.0659 9.72282 29.2173ZM39.9078 15.4849C39.8806 15.582 40.0205 15.6325 40.0671 15.5509C41.2562 14.5717 41.8313 11.8633 41.8118 10.3634C41.8623 9.53182 41.3727 7.31691 41.8507 6.78455C42.1305 6.54752 42.4336 7.17314 42.6939 6.84284C42.9271 6.48535 42.2665 6.19391 41.9828 6.1978C41.4621 6.17837 41.1435 6.69518 41.0619 7.15759C40.7899 8.61088 41.1862 10.0409 41.0658 11.5175C40.9492 12.8581 40.615 14.3075 39.9078 15.4849ZM39.7407 16.569C40.2808 17.2218 40.8365 17.8785 41.2367 18.6285C42.3442 20.9211 42.6123 23.4935 43.4516 25.8755C43.4944 26.0154 43.642 26.1009 43.7819 26.0621C43.9218 26.0232 44.0112 25.8716 43.9685 25.7318C43.8325 25.246 43.6926 24.7603 43.5838 24.2668C43.2884 22.3317 42.8377 20.4082 42.01 18.6246C41.26 17.148 40.071 15.9045 38.742 14.9292C38.6022 14.8398 37.4364 14.0471 37.5685 14.5639C37.8716 14.8942 38.2757 15.1274 38.6022 15.4344C39.0024 15.7919 39.3832 16.1688 39.7407 16.569ZM44.4076 56.8454C44.3065 56.8027 44.2016 56.8532 44.155 56.9465C44.0345 57.1874 43.9179 57.4283 43.8014 57.6692C43.3972 58.4814 42.9931 59.2935 42.7289 60.1639C42.453 61.011 42.2198 61.8776 42.0411 62.7519C41.6758 65.1572 41.2367 67.4187 38.8159 68.5767C38.6993 68.6466 38.5167 68.6738 38.4623 68.8137C38.4273 68.9653 38.6294 68.9964 38.7343 69.0002C40.2187 68.9536 41.3416 67.512 41.8546 66.2335C42.3364 65.0056 42.4608 63.6845 42.7017 62.4021C42.9037 61.4501 43.1369 60.502 43.4439 59.5733C43.7431 58.7262 44.1317 57.9101 44.5125 57.0941C44.5552 57.0009 44.5008 56.8843 44.4076 56.8454ZM59.772 52.9324C58.9327 50.5388 56.6401 49.9676 54.3785 50.6243C52.9991 50.9351 51.7634 51.6657 50.6754 52.5516C48.9501 53.8689 47.5823 55.5942 46.4398 57.4322C45.7792 58.4969 45.2275 59.6471 44.8428 60.84C44.4542 62.0485 44.221 63.3658 44.4581 64.6326C44.6213 65.503 45.006 66.4278 45.7831 66.9136C45.8298 66.9446 45.8803 66.9719 45.9386 66.9835C45.993 66.9952 46.0551 66.9835 46.0979 66.9446C46.1523 66.8941 46.1562 66.8086 46.129 66.7426C46.1018 66.6765 46.0512 66.6182 46.0046 66.5638C45.8958 66.4356 45.8259 66.2491 45.7404 66.1014C45.6471 65.9382 45.5733 65.7556 45.4995 65.5924C45.3518 65.2543 45.2352 64.9007 45.1614 64.5432C45.0137 63.8477 45.0176 63.1288 45.1225 62.4255C45.2197 61.7687 45.4062 61.1354 45.6122 60.5059C46.0279 59.2352 46.6846 58.0228 47.4424 56.9154C48.1768 55.8196 49.0394 54.7316 50.0342 53.8456C51.0834 52.9247 52.2375 51.9571 53.5897 51.4636C55.0702 50.9779 56.9315 50.5815 58.241 51.6734C59.5855 52.8586 59.8031 54.8792 59.4573 56.5462C59.0337 58.5086 57.7553 60.1445 56.508 61.6716C55.9018 62.3788 55.3617 63.1288 54.872 63.9215C54.806 64.0225 54.9692 64.1313 55.0352 64.0342C55.7969 62.9034 56.6984 61.8814 57.5649 60.8284C58.5946 59.651 59.6011 58.3648 59.978 56.8143C60.3161 55.5359 60.2383 54.172 59.772 52.9324ZM36.5466 68.9847C36.3717 69.043 36.193 69.0857 36.0142 69.1246C35.1826 69.315 34.3083 69.2178 33.4923 68.9925C33.2475 68.9264 33.0066 68.8487 32.7734 68.7554C32.7074 68.7321 32.6297 68.6933 32.5597 68.7088C32.4626 68.7438 32.5131 68.8798 32.5675 68.9342C33.1193 69.4976 33.9547 69.6725 34.7086 69.7774C35.5207 69.8823 36.3756 69.7541 37.1022 69.3811C37.2421 69.3072 37.2849 69.1168 37.2071 68.9847C37.0517 68.7282 36.7603 68.907 36.5466 68.9847ZM32.1439 57.0591C32.1245 56.997 32.109 56.9115 32.0351 56.8959C31.7826 56.8571 31.9069 57.4283 31.8797 57.6032C31.8719 58.5513 31.9535 59.5072 31.7476 60.4398C31.5883 61.2675 31.2735 62.0446 30.9432 62.814C30.9355 62.814 30.9316 62.8063 30.9238 62.8063C30.2321 62.7324 29.5443 62.6392 28.8604 62.5148C27.7957 62.3167 26.832 61.8076 25.8606 61.353C24.586 60.7079 23.4164 59.8997 22.2701 59.0526C21.4968 58.4891 20.6963 57.9607 19.9347 57.3817C18.7107 56.4607 17.475 55.532 16.4492 54.3857C15.264 52.9791 14.277 51.1799 13.8301 49.3925C13.7135 48.8018 13.6397 48.2073 13.5931 47.6089C13.5387 47.1348 13.6009 46.618 13.4377 46.1633C13.391 46.1012 13.2861 46.1595 13.3055 46.2411C13.2667 47.2786 13.2356 48.3005 13.3483 49.3419C13.5698 51.2071 14.4868 53.1695 15.6642 54.6305C17.067 56.2781 18.9283 57.44 20.6614 58.7067C23.0822 60.3427 25.4487 62.2856 28.3708 62.9345C29.1363 63.0822 29.9951 63.1094 30.7878 63.1832C30.3837 64.1274 29.9951 65.0795 29.8746 66.117C29.7192 67.1001 30.1971 67.9433 30.7956 68.6777C30.8772 68.7826 31.0326 68.8021 31.1375 68.7205C31.3473 68.5611 31.1492 68.3241 31.0404 68.1764C30.7567 67.749 30.4769 67.2749 30.442 66.7465C30.4109 66.0975 30.5546 65.4758 30.7917 64.858C31.2657 63.6417 31.868 62.4721 32.1945 61.2014C32.4975 60.094 32.4237 58.9671 32.2761 57.8285C32.2411 57.5721 32.2139 57.3117 32.1439 57.0591ZM25.5031 65.6818C24.9319 66.4473 23.8983 67.2633 22.34 68.0132C20.7779 68.7632 17.8208 69.2217 15.944 68.7088C14.0672 68.1959 13.5115 66.661 13.698 65.3087C13.8107 64.5044 14.584 62.8762 14.8637 62.1224C15.0541 61.6094 14.8016 61.7843 14.8016 61.7843C14.8016 61.7843 13.1967 64.4733 13.1112 65.5768C13.0296 66.6804 13.2783 68.701 16.4025 69.2606C19.5267 69.8202 23.0356 68.4562 24.1897 67.5741C25.7712 66.3657 26.4396 64.7414 26.4396 64.7414C26.8554 63.9176 26.0782 64.9163 25.5031 65.6818Z" fill="black"/>
</g>
</svg>
