<svg width="375" height="1370" viewBox="0 0 375 1370" fill="none" xmlns="http://www.w3.org/2000/svg">
<g clip-path="url(#clip0_758_5003)">
<rect width="375" height="1370" fill="#A7D441"/>
<path d="M157.811 388.701C155.28 387.921 153.312 386.103 151.344 384.284C150.5 383.504 149.375 382.725 148.532 381.945C145.157 379.087 141.502 375.969 138.69 372.072C133.909 365.316 133.066 357.781 135.878 348.428C137.846 341.932 140.939 335.436 143.751 329.201C144.595 327.382 145.438 325.563 146.282 323.744C150.5 314.131 155.562 302.958 157.53 291.266C159.217 281.392 156.124 271.259 149.375 263.984C143.189 257.229 134.472 253.591 125.192 253.331H124.348H123.224H122.099C119.849 253.331 117.6 253.331 115.069 252.811C109.726 252.032 106.352 248.914 104.946 243.977C104.102 241.379 103.821 238.521 103.821 235.923C103.821 228.388 103.54 221.372 102.415 214.357C99.884 199.287 91.448 189.154 75.982 182.918C72.3264 181.619 69.2332 180.32 65.8588 179.28C60.516 177.202 54.892 175.123 49.5492 172.785C36.3328 166.809 25.6472 157.975 18.0548 146.542C16.93 144.983 15.8052 143.165 14.6804 141.606C11.8684 137.189 9.05641 132.512 5.40081 128.354C0.62041 122.119 -4.72239 119.26 -10.9088 119.26C-14.8456 119.26 -19.3448 120.56 -24.1252 123.158C-42.6844 133.031 -53.37 148.621 -56.4632 169.667C-57.8692 179.8 -57.0256 189.933 -54.4948 201.106C-54.2136 202.925 -53.6512 204.484 -53.0888 206.302C-51.964 210.979 -50.8392 215.656 -49.9956 220.593C-48.8708 227.608 -49.4332 235.143 -51.1204 243.458C-54.2136 257.229 -58.1504 267.881 -63.7744 276.716C-70.5232 287.368 -80.084 293.604 -92.1756 295.163C-96.1124 295.683 -100.049 295.943 -103.986 295.943C-118.046 295.943 -132.106 292.825 -147.01 286.329C-149.259 285.55 -151.228 284.51 -153.196 283.471C-159.664 280.613 -166.412 277.495 -173.442 275.676C-179.066 274.117 -184.69 273.338 -190.877 273.078C-192.002 273.078 -193.126 272.818 -193.97 272.818C-195.376 272.558 -196.782 272.558 -198.188 272.558C-198.469 272.558 -198.75 272.558 -199.313 272.039V245.017C-199.032 244.757 -198.75 244.757 -198.469 244.757C-197.907 244.757 -197.626 244.757 -197.063 245.017C-196.782 245.017 -196.501 245.276 -196.22 245.276C-177.379 248.654 -161.632 255.15 -147.572 265.023C-140.542 269.96 -134.356 274.117 -127.888 277.235C-119.733 281.392 -111.578 283.471 -103.142 283.731C-102.58 283.731 -102.018 283.731 -101.174 283.731C-88.52 283.731 -78.678 278.794 -72.2104 268.921C-66.024 259.047 -62.6496 247.615 -62.0872 235.143C-61.806 226.829 -63.4932 219.034 -65.4616 211.499C-68.5548 200.067 -69.6796 190.453 -69.3984 181.359C-68.5548 167.848 -66.8676 151.999 -59.2752 137.708C-56.182 131.732 -52.2452 126.016 -46.34 119.52C-44.3716 117.182 -42.4032 115.103 -40.4348 112.765C-34.2484 105.75 -28.062 98.4743 -21.032 91.9787C-17.0952 87.5616 -13.4396 84.4437 -9.78399 82.1053C-1.62919 76.6489 5.1196 69.6336 11.5872 60.7995C18.6172 50.926 26.2096 42.6116 34.0832 35.0766C39.426 30.1399 45.6124 25.7229 51.5176 21.5656L54.3296 19.487C61.0784 14.8101 65.5776 9.35376 68.1084 2.85809C68.3896 2.33844 68.952 1.81879 69.5144 1.29913H103.258C103.821 1.81879 104.383 2.33844 104.664 3.37775C106.633 11.1726 111.413 16.8887 115.912 21.5656C127.442 33.5177 135.596 45.7295 141.502 59.2405C145.157 67.8148 149.656 76.9087 156.124 84.4437C161.748 90.9394 168.497 96.9154 175.527 101.852L180.307 105.23C187.618 110.426 195.211 115.883 202.803 120.56C208.427 123.937 214.051 125.756 219.956 126.016C220.238 126.016 220.8 126.016 221.081 126.016C227.83 126.016 233.735 123.418 238.797 118.481C243.015 114.324 246.67 109.127 250.607 101.852C254.544 94.5769 257.637 86.7821 261.012 79.2472C262.136 76.6489 263.261 73.7908 264.386 71.1925C267.479 63.6576 270.572 57.6815 273.666 52.2252C277.04 46.2492 278.165 40.7928 277.04 35.0766C275.353 25.9827 275.072 16.6289 274.79 8.83411C274.79 7.7948 274.79 6.7555 275.072 5.45636C275.353 4.41706 275.353 3.37775 275.353 2.33844C275.353 1.81879 275.634 1.55896 275.915 1.29913H305.441C306.285 1.81879 306.847 2.33844 307.41 3.63757C309.659 8.31446 311.346 11.6922 313.596 14.5503C320.064 23.3844 329.343 28.3211 341.716 29.8801C344.528 30.3997 347.059 30.3997 349.871 30.3997C351.558 30.3997 353.245 30.3997 354.932 30.3997C358.026 30.6596 361.119 30.6596 363.931 30.9194C370.68 31.1792 377.428 31.439 384.177 32.7382C396.269 35.3364 404.142 43.9107 405.548 55.8628C406.392 63.1379 406.392 68.8541 405.548 74.3105C403.018 88.6009 392.894 98.7342 378.553 101.332C375.179 101.852 372.086 102.372 368.711 102.372C361.4 102.372 353.808 100.813 346.496 97.435C341.716 95.0966 336.936 92.4983 332.155 89.6402C330.187 88.6009 328.5 87.5616 326.531 86.5223C323.719 84.9634 320.345 83.4044 316.97 82.1053C313.596 80.8061 309.94 80.0266 306.285 80.0266C300.942 80.0266 295.318 81.5856 289.694 84.7035C283.226 88.3411 277.602 93.5376 272.26 101.332C267.479 108.348 263.261 116.143 259.606 123.418C258.481 125.496 257.356 127.835 256.231 129.913C253.982 134.071 251.732 137.448 248.92 140.566C244.702 144.983 239.359 147.322 231.486 147.841C230.642 147.841 229.798 147.841 228.955 147.841C217.707 147.841 207.302 143.684 196.898 135.11C191.836 130.953 186.775 126.795 181.713 122.378C172.715 114.843 163.716 107.308 154.718 99.7735C145.72 92.2385 137.846 82.6249 131.941 71.1925L131.66 70.6729C127.442 62.8781 123.224 54.8234 116.194 48.8474C107.195 40.7928 98.478 36.8954 88.9172 36.6356H88.0736C81.3248 36.6356 75.7008 39.4937 70.358 45.2099C67.8272 48.068 65.2964 51.1859 62.7656 55.6029C55.1732 67.0353 46.456 78.4677 36.0516 90.1599C30.7088 95.8761 27.6156 102.372 26.2096 109.127C24.8036 116.662 25.6472 124.457 29.0216 133.551C34.0832 147.322 44.4876 156.676 60.7972 162.392C66.14 164.211 71.2016 165.769 76.2632 167.069C79.9188 168.108 83.5744 169.147 87.23 170.187C98.7592 173.824 107.758 181.359 114.788 193.311C116.756 196.429 118.443 199.807 120.13 203.185C120.974 205.523 122.38 207.861 123.505 210.2C128.004 218.254 134.472 225.27 144.032 232.285C154.999 240.6 162.873 247.355 169.622 254.37C176.933 262.165 183.682 270.48 190.712 280.093C194.93 286.329 198.866 288.927 203.647 288.927C207.302 288.927 210.958 287.368 215.738 285.29C224.737 281.133 231.767 273.857 237.672 263.464C243.858 252.552 248.358 243.198 251.732 234.364C255.106 225.53 257.075 216.436 257.637 207.082C257.918 202.665 257.918 198.248 258.2 193.831C258.2 189.933 258.481 186.036 258.762 182.139C259.043 178.241 259.324 173.564 260.73 169.147C262.98 161.612 268.604 156.935 277.04 155.896C281.258 155.376 285.195 154.857 288.85 154.857C298.411 154.857 306.285 156.935 313.596 161.093C321.751 165.769 328.781 172.785 334.405 181.619C341.716 193.311 346.215 206.562 347.34 220.593L347.621 223.971C348.184 231.506 349.027 239.041 351.839 246.316C354.089 252.552 357.463 259.307 365.056 263.205C367.586 264.504 369.836 265.283 372.086 265.803C372.929 266.063 374.054 266.063 374.898 266.063C379.397 266.063 383.052 263.464 385.021 259.047C387.27 254.111 388.114 248.914 388.958 243.718L389.52 242.418C391.488 232.545 393.738 221.113 399.643 210.72C404.142 202.665 408.923 195.909 414.547 190.193C420.171 184.737 426.076 179.28 431.981 174.344C433.668 173.045 435.356 171.486 436.762 170.187C443.51 164.211 449.978 157.715 457.852 148.361C466.85 137.708 474.442 129.134 483.16 121.339C487.659 117.442 492.439 113.025 498.907 108.088C499.188 107.828 499.469 107.568 499.75 107.568C500.313 107.049 500.594 106.789 500.875 106.789V155.376C498.626 159.274 494.97 162.132 491.314 164.47C483.722 169.667 475.286 173.824 467.412 177.462C465.444 178.501 463.194 179.28 461.226 180.32C452.79 184.217 444.073 188.115 435.918 193.051C421.014 202.405 411.735 214.097 407.517 228.388C406.111 233.584 405.267 238.261 405.267 242.938V245.536C405.267 250.213 405.267 255.15 406.392 259.827C408.36 269.7 414.266 276.716 423.826 280.613C429.169 282.951 435.074 284.25 440.417 285.809C442.104 286.329 443.792 286.589 445.198 287.109C453.634 289.447 464.882 292.825 475.567 298.021C488.221 304.517 495.532 314.65 497.782 329.46C499.188 339.334 497.501 348.428 492.439 356.742C489.627 361.679 484.847 365.316 477.817 368.175C472.755 370.253 467.412 371.552 462.351 372.851C460.945 373.111 459.82 373.371 458.414 373.891H458.133C454.196 374.93 449.978 375.969 446.041 377.528C441.823 379.347 438.168 382.205 434.793 386.622C434.231 387.402 433.668 388.181 432.825 388.701H411.172C410.329 387.921 410.329 386.882 410.048 385.583V384.803C409.485 379.867 408.36 375.969 406.954 372.592C405.548 368.694 402.736 366.356 398.518 365.316C393.738 364.017 388.958 363.498 384.177 363.238C376.866 362.458 369.274 361.939 362.525 361.419C359.994 361.159 357.463 361.159 355.214 361.159C341.435 361.159 331.03 364.537 322.032 371.552C317.252 375.19 313.596 380.127 309.94 386.622C309.378 387.662 308.816 388.441 307.972 388.961H284.914C284.632 388.701 284.632 388.181 285.195 387.142C288.007 380.386 290.819 375.45 294.756 371.552C306.566 359.081 319.501 351.286 334.405 347.648C337.779 346.869 341.435 346.349 346.215 346.349C347.059 346.349 347.902 346.349 348.746 346.349C350.433 346.349 351.839 346.349 353.526 346.349C355.214 346.349 356.62 346.349 358.307 346.349C361.4 346.349 365.337 346.349 369.274 345.829C374.335 345.05 379.959 344.011 383.896 339.334C385.302 337.775 386.708 335.696 387.27 333.358C389.239 325.043 391.77 303.997 372.648 291.785L369.555 289.707C365.056 286.849 360.275 283.991 356.057 280.613C344.809 272.039 337.779 260.346 335.248 246.316C334.124 239.82 333.842 233.065 333.561 227.089C333.842 218.514 333.28 209.161 330.187 200.326C326.531 189.933 320.907 182.139 313.315 176.942C307.972 173.045 302.348 171.226 296.443 171.226C294.474 171.226 292.787 171.486 290.819 171.746C283.508 173.304 278.165 177.722 275.072 184.997C272.541 190.713 271.978 196.689 271.697 201.366C270.572 218.774 268.323 234.624 265.23 249.953C263.824 256.709 263.261 263.724 262.418 270.48L262.136 273.338C260.73 286.589 256.512 296.982 248.92 305.556C246.389 308.414 243.577 311.013 240.765 313.351C239.078 314.91 237.391 316.469 235.704 318.288C229.798 324.264 225.58 331.279 223.331 339.594C222.487 342.452 221.925 345.05 221.081 347.908C219.956 351.805 219.113 355.963 217.707 360.12C215.738 367.135 212.926 373.891 210.396 380.386C209.552 382.465 208.708 384.544 207.865 386.622C207.584 387.402 207.021 387.921 206.459 388.181H157.811M157.811 389.74C174.402 389.74 190.712 389.74 207.302 389.74C208.427 389.221 208.99 388.441 209.552 387.402C212.926 378.568 216.863 369.993 219.394 360.64C221.362 353.884 223.05 346.869 224.737 340.113C226.986 332.059 230.642 325.043 236.828 319.327C241.328 314.91 245.827 311.013 250.045 306.596C258.481 297.242 262.418 286.069 263.542 273.857C264.386 266.063 264.948 258.268 266.354 250.473C269.729 234.364 271.697 217.995 272.822 201.885C273.103 196.429 273.947 190.973 276.196 185.776C279.008 179.28 283.789 174.604 291.1 173.045C292.787 172.785 294.756 172.525 296.443 172.525C302.348 172.525 307.691 174.604 312.752 177.981C320.907 183.698 325.688 191.752 329.062 200.846C332.155 209.161 332.718 217.995 332.999 226.829C333.28 233.324 333.561 239.82 334.686 246.316C337.217 260.606 344.247 272.298 356.057 281.392C361.4 285.55 367.024 288.927 372.648 292.565C387.833 302.438 390.082 319.067 386.708 333.098C386.146 335.177 385.021 336.995 383.615 338.554C379.959 342.971 374.898 344.011 369.555 344.79C365.899 345.31 362.244 345.31 358.588 345.31C355.495 345.31 352.12 345.31 349.027 345.31C348.184 345.31 347.34 345.31 346.496 345.31C342.56 345.31 338.342 345.829 334.405 346.609C318.376 350.506 305.16 359.081 294.193 370.773C289.694 375.45 286.882 380.906 284.632 386.882C284.07 388.181 283.789 389.221 284.914 390C292.787 390 300.661 390 308.534 390C309.94 389.48 310.503 388.181 311.065 387.142C314.158 381.426 317.814 376.489 322.876 372.332C332.718 364.797 343.684 362.199 355.495 362.199C357.744 362.199 360.275 362.199 362.525 362.458C369.836 362.978 377.147 363.498 384.177 364.277C388.958 364.797 393.738 365.316 398.237 366.356C401.893 367.395 404.424 369.474 405.83 372.851C407.236 376.749 408.079 380.906 408.642 384.803C408.923 386.622 408.923 388.441 410.329 389.74C417.921 389.74 425.514 389.74 432.825 389.74C433.95 388.961 434.793 387.921 435.356 387.142C438.168 383.504 441.542 380.386 446.041 378.568C449.978 377.009 454.196 375.969 458.414 374.93C464.882 373.371 471.63 371.812 477.817 369.214C484.003 366.616 489.627 363.238 493.002 357.262C498.063 348.428 499.75 339.074 498.344 329.201C496.095 314.91 488.784 303.997 475.567 297.242C466.569 292.045 456.164 288.668 445.76 285.809C438.449 283.731 431.138 282.172 424.389 279.314C415.109 275.416 409.485 268.921 407.517 259.047C406.392 253.591 406.392 248.135 406.392 242.678C406.392 237.742 407.236 233.065 408.642 228.388C413.141 213.058 423.264 202.145 436.762 193.831C446.604 187.595 457.289 183.178 467.975 178.241C476.411 174.344 484.566 170.187 491.877 164.99C495.814 162.392 499.469 159.534 502 155.376C502 138.747 502 122.378 502 105.75C501.719 105.49 501.156 105.49 500.875 105.49C499.75 105.49 498.907 106.529 498.063 107.308C492.72 111.726 487.378 116.143 482.316 120.819C473.036 129.134 464.882 138.488 457.008 148.101C450.54 155.896 443.792 163.171 436.199 169.667C428.607 176.163 420.733 182.658 413.703 189.674C407.517 195.909 402.736 202.665 398.518 210.2C392.894 220.333 390.364 231.246 388.395 242.159C387.27 247.615 386.427 253.331 384.177 258.528C382.49 262.685 379.116 264.763 375.179 264.763C374.335 264.763 373.492 264.763 372.648 264.504C370.117 263.984 368.149 263.205 365.899 261.905C359.15 258.528 355.776 252.292 353.245 245.536C350.152 237.482 349.59 228.648 348.746 220.073C347.621 205.783 343.122 192.791 335.53 180.839C330.187 172.265 323.157 164.99 314.158 160.053C306.004 155.376 297.568 153.817 288.85 153.817C284.914 153.817 280.977 154.077 276.759 154.857C268.604 155.896 262.136 160.313 259.606 168.887C258.2 173.304 257.637 177.722 257.356 182.139C256.794 190.453 256.794 198.767 256.231 207.082C255.669 216.436 253.7 225.53 250.326 234.104C246.389 244.237 241.609 253.591 236.266 262.945C231.204 272.039 224.456 279.833 214.895 284.51C210.396 286.849 206.74 288.148 203.366 288.148C199.148 288.148 195.492 285.809 191.274 279.833C184.806 270.74 177.776 262.165 170.184 253.851C162.31 245.536 153.593 238.521 144.595 231.506C136.44 225.53 129.41 218.774 124.348 209.94C121.255 204.224 118.724 198.508 115.35 192.791C108.882 181.619 99.884 173.304 87.23 169.147C78.5128 166.549 69.7956 164.47 61.0784 161.352C46.7372 156.156 35.208 147.841 29.8652 133.031C27.0532 125.237 25.366 117.442 27.0532 109.127C28.7404 102.112 32.1148 96.1359 36.8952 90.6795C46.7372 79.507 55.7356 68.0746 63.8904 55.6029C66.14 51.9654 68.3896 48.5876 71.4828 45.4697C75.982 40.533 81.3248 37.4151 88.3548 37.4151C88.636 37.4151 88.9172 37.4151 89.1984 37.4151C99.6028 37.6749 108.32 42.6116 115.631 49.3671C122.661 55.6029 126.879 63.6576 131.097 71.4524C137.002 82.3651 144.595 92.2385 154.156 100.293C168.216 111.985 182.276 123.678 196.336 135.37C205.896 143.165 216.582 148.361 229.236 148.361C230.08 148.361 230.923 148.361 232.048 148.361C239.078 148.101 245.264 146.282 250.326 140.826C253.419 137.448 255.669 133.811 257.918 129.913C262.98 120.3 267.479 110.426 273.947 101.332C278.446 94.8368 283.789 89.1206 291.1 85.2232C296.162 82.3651 301.504 80.5463 307.128 80.5463C310.503 80.5463 313.877 81.066 317.252 82.6249C320.626 83.924 323.719 85.483 326.812 87.042C333.28 90.6795 339.748 94.8368 346.778 97.9547C354.089 101.332 361.681 103.151 369.274 103.151C372.648 103.151 375.741 102.891 379.116 102.112C394.019 99.2538 404.424 88.8608 406.954 74.0506C408.079 67.8148 407.798 61.5789 406.954 55.3431C405.548 42.6116 396.831 33.7775 384.74 31.439C374.898 29.3604 365.056 29.8801 355.214 29.1006C350.714 28.8408 346.496 29.1006 341.997 28.5809C331.03 27.022 321.47 22.6049 314.721 13.511C312.19 10.1332 310.222 6.49567 308.534 2.59827C307.972 1.55896 307.128 0.77948 306.004 0C295.88 0 285.757 0 275.634 0C275.072 0.519654 274.509 1.29913 274.509 2.07861C274.509 4.15723 273.947 6.49567 273.947 8.57428C273.947 17.4084 274.509 26.2425 276.196 35.0766C277.321 40.7928 275.915 45.9893 273.103 51.1859C269.448 57.4217 266.354 63.6576 263.542 70.4131C259.043 80.5463 255.106 91.1992 249.764 101.073C246.67 107.049 243.015 112.505 237.953 117.442C233.173 122.119 227.549 124.717 221.081 124.717C220.8 124.717 220.238 124.717 219.956 124.717C214.051 124.457 208.708 122.378 203.366 119.52C193.805 113.804 185.088 107.308 176.089 100.813C169.059 95.8761 162.592 90.1599 156.968 83.6642C150.5 76.1292 146.282 67.555 142.345 58.7209C136.44 44.1706 127.442 31.6989 116.756 20.5263C111.976 15.3298 107.476 9.87342 105.789 2.85809C105.508 1.55896 104.664 0.77948 103.821 0C92.2916 0 80.7624 0 69.2332 0C68.3896 0.77948 67.546 1.55896 66.9836 2.59827C64.1716 9.35376 59.3912 14.5503 53.486 18.7075C46.456 23.6442 39.426 28.5809 33.2396 34.2971C24.8036 42.0919 17.2112 50.926 10.4624 60.2798C4.83841 68.3344 -1.91039 75.3498 -10.3464 81.066C-14.5644 84.1839 -18.5012 87.5616 -21.8756 90.9394C-30.874 99.7735 -38.7476 109.387 -47.1836 118.481C-52.2452 124.457 -57.0256 130.433 -60.4 137.189C-67.7112 150.959 -69.6796 166.029 -70.5232 181.359C-71.0856 191.752 -69.3984 201.885 -66.8676 212.019C-64.618 219.554 -62.9308 227.089 -63.212 235.143C-63.4932 247.095 -66.8676 258.528 -73.6164 268.661C-80.3652 278.794 -89.926 282.951 -101.455 282.951C-102.018 282.951 -102.58 282.951 -103.424 282.951C-111.86 282.692 -120.014 280.353 -127.607 276.456C-134.637 273.078 -140.823 268.661 -147.291 264.244C-161.913 253.591 -178.504 247.355 -196.22 244.237C-197.063 244.237 -197.907 243.718 -198.75 243.718C-199.594 243.718 -200.438 243.977 -201 244.497C-201 253.851 -201 263.205 -201 272.558C-200.438 273.078 -199.875 273.598 -198.75 273.598C-198.75 273.598 -198.75 273.598 -198.469 273.598C-195.938 273.598 -193.689 274.117 -191.158 274.117C-185.253 274.377 -179.629 275.157 -174.005 276.716C-164.725 279.054 -156.289 283.471 -147.572 287.109C-133.512 293.085 -119.171 296.722 -103.986 296.722C-100.049 296.722 -96.1124 296.462 -91.8944 295.943C-78.9592 294.384 -69.3984 287.888 -62.6496 277.235C-56.182 266.842 -52.5264 255.41 -49.9956 243.718C-48.3084 236.183 -47.746 228.388 -48.8708 220.593C-49.9956 214.097 -51.6828 207.602 -53.37 201.106C-55.9008 190.713 -56.7444 180.58 -55.3384 169.927C-52.5264 149.4 -41.8408 134.071 -23.844 124.197C-19.3448 121.859 -15.1268 120.56 -11.19 120.56C-5.56599 120.56 -0.504389 123.158 4.27601 129.394C9.05641 135.11 12.712 141.346 16.6488 147.582C24.8036 159.534 35.4892 168.108 48.7056 174.084C57.4228 177.981 66.4212 180.839 75.1384 184.217C89.1984 189.933 98.478 199.807 101.009 214.877C102.134 222.152 102.696 229.167 102.415 236.442C102.415 239.3 102.696 241.899 103.54 244.757C104.946 250.213 108.601 253.591 114.506 254.37C117.037 254.63 119.287 254.89 121.536 254.89C122.38 254.89 123.224 254.89 124.067 254.89C124.348 254.89 124.63 254.89 124.911 254.89C144.595 254.89 159.217 272.298 156.124 291.526C154.156 302.958 149.656 313.351 145.157 324.004C141.502 332.059 137.565 340.113 134.753 348.688C131.941 357.262 131.941 365.576 137.565 373.371C140.377 377.268 144.032 380.386 147.688 383.244C151.062 385.063 153.593 388.441 157.811 389.74Z" fill="white" fill-opacity="0.2"/>
</g>
<defs>
<clipPath id="clip0_758_5003">
<rect width="375" height="1370" fill="white"/>
</clipPath>
</defs>
</svg>
