<svg width="22" height="21" viewBox="0 0 22 21" fill="none" xmlns="http://www.w3.org/2000/svg">
<circle cx="11" cy="10.5" r="10" fill="white" stroke="#FFA031"/>
<path d="M12.3589 14.7136L7.91842 14.7136C7.64593 14.7136 7.42503 14.4927 7.42503 14.2202L7.42503 9.77965C7.42503 9.50716 7.64593 9.28626 7.91842 9.28626C8.19092 9.28626 8.41181 9.50716 8.41181 9.77965L8.41181 13.029L14.4011 7.03975C14.5938 6.84707 14.9062 6.84707 15.0988 7.03975C15.2915 7.23243 15.2915 7.54483 15.0988 7.73751L9.10957 13.7268L12.3589 13.7268C12.6314 13.7268 12.8523 13.9477 12.8523 14.2202C12.8523 14.4927 12.6314 14.7136 12.3589 14.7136Z" fill="#FFA031"/>
<path d="M12.3589 14.7136L7.91842 14.7136C7.64593 14.7136 7.42503 14.4927 7.42503 14.2202L7.42503 9.77965C7.42503 9.50716 7.64593 9.28626 7.91842 9.28626C8.19092 9.28626 8.41181 9.50716 8.41181 9.77965L8.41181 13.029L14.4011 7.03975C14.5938 6.84707 14.9062 6.84707 15.0988 7.03975C15.2915 7.23243 15.2915 7.54483 15.0988 7.73751L9.10957 13.7268L12.3589 13.7268C12.6314 13.7268 12.8523 13.9477 12.8523 14.2202C12.8523 14.4927 12.6314 14.7136 12.3589 14.7136Z" stroke="white"/>
</svg>
