<svg width="24" height="23" viewBox="0 0 24 23" fill="none" xmlns="http://www.w3.org/2000/svg">
<circle cx="11.9991" cy="11.4999" r="10" transform="rotate(-174.31 11.9991 11.4999)" fill="white" stroke="#FFA031"/>
<path d="M11.0644 7.17248L15.483 7.61277C15.7542 7.63979 15.9521 7.8815 15.9251 8.15265L15.4848 12.5713C15.4578 12.8424 15.2161 13.0403 14.9449 13.0133C14.6738 12.9863 14.4758 12.7446 14.5029 12.4734L14.825 9.24009L8.27145 14.606C8.06061 14.7786 7.74976 14.7476 7.57713 14.5368C7.4045 14.326 7.43548 14.0151 7.64631 13.8425L14.1999 8.47658L10.9666 8.1544C10.6954 8.12738 10.4975 7.88567 10.5245 7.61452C10.5515 7.34337 10.7933 7.14546 11.0644 7.17248Z" fill="#FFA031"/>
<path d="M11.0644 7.17248L15.483 7.61277C15.7542 7.63979 15.9521 7.8815 15.9251 8.15265L15.4848 12.5713C15.4578 12.8424 15.2161 13.0403 14.9449 13.0133C14.6738 12.9863 14.4758 12.7446 14.5029 12.4734L14.825 9.24009L8.27145 14.606C8.06061 14.7786 7.74976 14.7476 7.57713 14.5368C7.4045 14.326 7.43548 14.0151 7.64631 13.8425L14.1999 8.47658L10.9666 8.1544C10.6954 8.12738 10.4975 7.88567 10.5245 7.61452C10.5515 7.34337 10.7933 7.14546 11.0644 7.17248Z" stroke="white"/>
</svg>
