<svg width="28" height="24" viewBox="0 0 28 24" fill="none" xmlns="http://www.w3.org/2000/svg">
<path fill-rule="evenodd" clip-rule="evenodd" d="M9.79595 0.111691C7.70469 0.680754 6.57316 2.44426 6.70234 4.93269C6.7539 5.92595 6.84867 6.31266 7.20002 6.9653C7.96112 8.37839 9.19666 9.14638 10.6862 9.13222C14.2059 9.09864 15.8824 4.10914 13.322 1.28807C12.3442 0.210927 11.0357 -0.225621 9.79595 0.111691ZM17.7004 2.47815C16.1974 3.16482 15.3091 4.55412 15.2002 6.3881C15.116 7.80556 15.5011 8.84174 16.4022 9.62118C17.1594 10.2761 17.831 10.4991 18.7974 10.4161C19.7539 10.3339 20.4951 9.98198 21.1894 9.2804C22.95 7.50123 22.9889 4.5746 21.2726 3.00775C20.3149 2.13315 18.9108 1.92504 17.7004 2.47815ZM1.9545 5.56139C1.17357 5.90698 0.434067 6.7992 0.171374 7.7128C-0.39767 9.69075 0.486665 11.7514 2.28618 12.6412C5.00326 13.9845 7.66208 11.4168 6.76895 8.31183C6.12302 6.06645 3.80497 4.7422 1.9545 5.56139ZM22.528 9.52179C19.968 10.7299 19.2477 14.3517 21.2378 16.0096C23.2203 17.6609 26.476 16.2048 27.0997 13.3878C27.4308 11.8928 26.9293 10.4828 25.7842 9.68999C25.0557 9.18538 23.4196 9.1009 22.528 9.52179ZM10.5347 10.1223C9.58288 10.4395 8.50305 11.1466 7.76772 11.9345C7.28078 12.4564 4.29594 17.0699 3.77472 18.1065C2.86893 19.9078 3.69724 22.3797 5.58035 23.4949C6.67582 24.1437 7.93803 24.1584 9.67392 23.5428C10.892 23.1106 11.2595 23.0475 12.5598 23.0463C13.8351 23.0453 14.2561 23.114 15.4807 23.5225C16.3143 23.8006 17.2208 24 17.652 24C19.9778 24 21.776 22.1672 21.7609 19.8121C21.7574 19.2478 21.6526 18.5661 21.5227 18.2621C21.102 17.2779 17.978 12.4945 17.2737 11.7563C16.8611 11.324 16.1383 10.8096 15.4789 10.4792C14.4571 9.96722 14.2632 9.9231 12.8714 9.88545C11.7267 9.85443 11.1689 9.91105 10.5347 10.1223Z" fill="#FFCC00"/>
</svg>
