<svg width="20" height="22" viewBox="0 0 20 22" fill="none" xmlns="http://www.w3.org/2000/svg">
<path d="M6.78652 18.9893C6.33779 19.0929 5.85254 19.3351 5.85254 19.8639C5.87863 20.3672 6.17395 20.8135 6.58303 21.0959C7.11107 21.5094 7.73198 21.7706 8.38212 21.8647C8.72858 21.9123 9.0813 21.9112 9.44028 21.8647C10.0894 21.7706 10.7103 21.5094 11.2394 21.0969C11.6474 20.8135 11.9427 20.3672 11.9688 19.8639C11.9688 19.3351 11.4836 19.0929 11.0348 18.9893C10.5099 18.8782 7.31143 18.8782 6.78652 18.9893Z" fill="#011624"/>
<path fill-rule="evenodd" clip-rule="evenodd" d="M8.89694 0.900024H8.87856C6.74032 0.900024 4.57912 1.88881 3.23085 3.53748C2.324 4.66797 1.88362 5.82278 1.88362 7.58884V8.03617C1.88362 9.3549 1.55803 10.1322 0.767013 11.0279C0.186796 11.6878 0 12.5349 0 13.4538C0 14.3718 0.302631 15.2432 0.906849 15.9507C1.69682 16.7988 2.81238 17.3402 3.95194 17.4344C5.6018 17.6226 7.25166 17.6934 8.92552 17.6934C10.5983 17.6934 12.2492 17.575 13.8991 17.4344C15.0376 17.3402 16.1532 16.7988 16.9442 15.9507C17.5484 15.2432 17.85 14.3718 17.85 13.4538C17.85 12.5517 17.671 11.7188 17.1145 11.0643C16.1238 11.6585 14.9643 12 13.725 12C10.0799 12 7.125 9.04513 7.125 5.40005C7.125 3.66095 7.79764 2.07895 8.89694 0.900024Z" fill="#011624"/>
<circle cx="13.7252" cy="5.4" r="5.4" fill="#E70000"/>
<path d="M12.0793 7.8C12.375 7.49955 12.6587 7.21103 12.9305 6.93443C13.2024 6.65306 13.4456 6.38361 13.6602 6.12608C13.8796 5.86379 14.0513 5.61103 14.1753 5.36781C14.304 5.12459 14.3684 4.88852 14.3684 4.65961C14.3684 4.52131 14.3374 4.40447 14.2754 4.30909C14.2134 4.20894 14.1276 4.13264 14.0179 4.08018C13.913 4.02772 13.7866 4.00149 13.6387 4.00149C13.4909 4.00149 13.3645 4.02772 13.2596 4.08018C13.1595 4.13264 13.0832 4.20179 13.0307 4.28763C12.9782 4.3687 12.952 4.45216 12.952 4.538C12.952 4.69061 12.9758 4.82653 13.0235 4.94575C13.076 5.06021 13.1451 5.16274 13.231 5.25335L12.5943 5.83279C12.456 5.76602 12.3368 5.65395 12.2367 5.49657C12.1413 5.3392 12.0674 5.17466 12.0149 5.00298C11.9672 4.82653 11.9434 4.68107 11.9434 4.56662C11.9434 4.30432 12.0149 4.05395 12.158 3.8155C12.3058 3.57705 12.518 3.38152 12.7946 3.22891C13.076 3.0763 13.417 3 13.8176 3C14.1466 3 14.4328 3.07392 14.676 3.22176C14.9192 3.3696 15.1076 3.56513 15.2411 3.80835C15.3794 4.0468 15.4486 4.30194 15.4486 4.57377C15.4486 4.85991 15.389 5.13413 15.2697 5.39642C15.1553 5.65872 15.0051 5.91624 14.8191 6.169C14.6331 6.41699 14.4328 6.67213 14.2182 6.93443L13.746 6.79851H15.5058V7.8H12.0793Z" fill="white"/>
</svg>
