<svg width="30" height="24" viewBox="0 0 30 24" fill="none" xmlns="http://www.w3.org/2000/svg">
<path fill-rule="evenodd" clip-rule="evenodd" d="M11.6877 0.0176805C11.4003 0.0565499 11.3117 0.230333 11.3117 0.755105C11.3117 1.32279 12.4447 8.66027 12.6092 9.15831C12.7661 9.63324 13.1517 10.3237 13.2601 10.3237C13.2959 10.3237 13.4949 10.0615 13.7023 9.74101C13.9096 9.42052 14.0895 9.15831 14.1022 9.15831C14.1148 9.15831 14.1065 9.30741 14.0837 9.48963C14.0434 9.81278 14.182 10.431 14.3476 10.6665C14.4062 10.7498 14.5931 10.6042 15.3327 9.89916C16.0816 9.18532 16.2382 9.06385 16.2046 9.22282C16.1496 9.48373 16.2762 9.89724 16.4957 10.1728C16.6443 10.3595 16.6944 10.3843 16.7826 10.3149C16.9873 10.1539 17.1033 9.83493 17.3112 8.86189C17.6988 7.04777 18.0631 5.87696 18.7389 4.27248L19.1366 3.32851L18.9313 3.07281C18.1701 2.12479 16.9047 1.11233 15.917 0.661119C14.8746 0.184951 14.1769 0.0296093 12.9749 0.00595861C12.3982 -0.00535261 11.819 -7.47256e-05 11.6877 0.0176805ZM10.0462 0.471569C9.25085 0.777932 8.32579 1.36673 7.70294 1.96307C7.38317 2.26916 6.89179 2.87716 6.43541 3.53129C5.28922 5.17416 5.01196 5.39359 2.707 6.48269C0.985471 7.29607 0.455114 7.6267 0.194058 8.04899C-0.139386 8.58836 -0.0332986 9.15125 0.43682 9.33751C0.657887 9.42505 0.714723 9.42395 0.927835 9.32811C1.06039 9.26847 1.20343 9.15187 1.24566 9.06898C1.32145 8.92029 1.32253 8.92023 1.3273 9.06199C1.33345 9.24194 1.11817 9.43252 0.90889 9.43252C0.753124 9.43252 0.752328 9.43691 0.870562 9.65532C1.06842 10.0208 2.12103 10.9588 2.59773 11.1945C3.45994 11.6206 3.94554 11.7292 4.98412 11.7279C5.81582 11.7269 5.98438 11.7061 6.44597 11.5471L6.96779 11.3674L6.92433 11.6682C6.90039 11.8336 6.90965 11.969 6.94487 11.9692C6.98009 11.9693 7.6537 11.8736 8.44164 11.7564C9.22966 11.6392 9.89416 11.562 9.91824 11.5849C9.94239 11.6078 9.88071 12.8681 9.78127 14.3856C9.68184 15.9031 9.60967 17.1561 9.62088 17.1699C9.63216 17.1838 9.66195 17.1067 9.68712 16.9986C9.83218 16.3745 9.84903 16.5029 9.78713 17.7617C9.75748 18.365 9.74056 18.8656 9.7496 18.8742C9.75857 18.8829 9.8849 18.4356 10.0303 17.8802C10.5602 15.8562 11.2618 14.0712 12.2932 12.1239C12.8561 11.0611 12.9397 10.8612 12.8506 10.7911C12.5132 10.5257 12.0606 9.63832 11.8856 8.89925C11.7068 8.14462 10.7211 1.3947 10.7097 0.846417C10.7027 0.516541 10.6807 0.247196 10.6608 0.247744C10.641 0.248292 10.3643 0.348996 10.0462 0.471569ZM9.24824 4.04571C9.74967 4.24431 9.86097 4.78882 9.47488 5.15483C9.14715 5.46551 8.7915 5.4773 8.48583 5.18752C8.16641 4.88473 8.21247 4.71458 8.77031 4.13682C8.984 3.91553 8.94047 3.92382 9.24824 4.04571ZM19.4219 4.23251C18.8347 5.53118 18.3377 7.08472 17.9605 8.80074C17.775 9.64497 17.6241 10.1575 17.4984 10.3707C17.3957 10.5449 17.3203 10.695 17.3308 10.7044C17.3414 10.7137 17.6428 10.805 18.0008 10.9071C19.5744 11.356 20.4944 12.0752 21.7708 13.8542L22.3119 14.6083L22.1169 14.7454C21.5982 15.1101 21.6164 15.0844 21.7492 15.264C22.0064 15.6122 21.8048 16.2321 21.3015 16.6405C20.9558 16.921 20.7237 16.9964 19.7483 17.1449C18.5203 17.3318 18.0999 17.5208 17.4788 18.165C16.7974 18.8718 16.7772 18.969 16.7508 21.6692L16.7281 24L17.256 23.5106C18.8579 22.0254 20.8991 20.8779 22.9905 20.2867C23.3087 20.1968 23.9921 20.0306 24.5091 19.9173C25.9057 19.6116 26.6068 19.3946 27.3155 19.0486C28.104 18.6638 28.8407 18.0109 29.1331 17.4377L29.3333 17.0452L29.0907 16.862C28.5603 16.4615 26.7898 14.7017 26.2356 14.0242C24.9897 12.501 24.0332 11.0764 21.979 7.68442C20.736 5.63202 19.9764 4.43262 19.6984 4.08307L19.5652 3.91573L19.4219 4.23251ZM19.1361 13.011C19.0884 13.0562 19.0494 13.2252 19.0494 13.3864C19.0494 13.622 19.0842 13.7013 19.2266 13.7897C19.6885 14.0766 20.168 13.4407 19.7725 13.0658C19.6118 12.9135 19.27 12.8841 19.1361 13.011Z" fill="white"/>
</svg>
