<svg width="17" height="24" viewBox="0 0 17 24" fill="none" xmlns="http://www.w3.org/2000/svg">
<path d="M8.25654 10.7461C8.13539 10.734 7.99001 10.734 7.85674 10.7461C4.97335 10.6492 2.68359 8.28672 2.68359 5.3791C2.68359 2.4109 5.08238 0 8.0627 0C11.0309 0 13.4418 2.4109 13.4418 5.3791C13.4297 8.28672 11.1399 10.6492 8.25654 10.7461Z" fill="white"/>
<path d="M2.19889 15.2165C-0.732963 17.1792 -0.732963 20.3775 2.19889 22.3281C5.53054 24.5572 10.9944 24.5572 14.3261 22.3281C17.258 20.3654 17.258 17.167 14.3261 15.2165C11.0066 12.9994 5.54266 12.9994 2.19889 15.2165Z" fill="white"/>
</svg>
