<svg width="24" height="24" viewBox="0 0 24 24" fill="none" xmlns="http://www.w3.org/2000/svg">
<path fill-rule="evenodd" clip-rule="evenodd" d="M12.6542 0.133355C11.6494 0.663765 11.3885 3.03385 12.2203 4.07549C12.9108 4.94024 14.1251 4.72814 14.6523 3.65069C14.9192 3.10506 14.938 2.63567 14.7258 1.81203C14.4748 0.83764 14.177 0.318026 13.7404 0.0922501C13.4734 -0.0458174 12.9567 -0.0263048 12.6542 0.133355ZM9.30538 0.730888C8.83337 0.87318 8.41153 1.40104 8.21029 2.10117C8.06981 2.5898 8.10502 3.75054 8.2746 4.22234C8.77048 5.60228 10.4442 5.6582 11.1005 4.31676C11.3603 3.78574 11.346 3.31729 11.0404 2.33915C10.742 1.38455 10.492 0.97155 10.1064 0.796535C9.80414 0.659339 9.59875 0.642509 9.30538 0.730888ZM16.2257 3.07421C15.7045 3.2328 15.3771 3.53603 15.1198 4.09856C14.6836 5.05236 14.9108 6.32507 15.6245 6.92562C15.9367 7.18835 16.2585 7.30315 16.6825 7.30315C17.1626 7.30315 17.5373 7.11901 17.8103 6.749C18.1173 6.33285 18.2021 6.01353 18.1973 5.29148C18.1871 3.74142 17.3025 2.74671 16.2257 3.07421ZM5.7629 3.93367C5.32214 4.16394 5.00088 4.60758 4.8907 5.13819C4.67606 6.17225 5.21096 7.39005 6.06284 7.80687C6.38443 7.96425 6.49823 7.9853 6.90197 7.9625C7.28815 7.94071 7.41884 7.90115 7.65688 7.73398C8.03508 7.46844 8.24054 7.08568 8.29016 6.55413C8.38491 5.53965 7.74741 4.27471 6.94583 3.88666C6.55301 3.69649 6.18924 3.71098 5.7629 3.93367ZM10.8617 6.2039C10.6957 6.29825 10.409 6.56158 10.2246 6.78903C9.6304 7.52195 8.96541 8.17675 8.33663 8.64801C7.56039 9.22972 7.36546 9.5707 7.3206 10.4255C7.27762 11.2439 7.46544 11.8194 7.93141 12.2978C8.39027 12.7687 8.70711 12.8654 9.29552 12.714C9.5221 12.6557 9.86912 12.5061 10.0667 12.3817C11.0644 11.7532 11.8063 11.7406 12.9121 12.3335C13.2469 12.513 13.6546 12.6935 13.8181 12.7347C14.8398 12.992 15.7567 11.9832 15.7567 10.6016C15.7567 9.6853 15.5129 9.22664 14.7174 8.64654C14.1892 8.26144 13.6539 7.73532 12.8175 6.77964C12.5839 6.51269 12.2758 6.23468 12.1328 6.16172C11.7564 5.96968 11.2437 5.98671 10.8617 6.2039ZM21.3068 14.4125C20.4427 14.63 19.1429 15.3052 17.7592 16.2554L17.0136 16.7675L16.6241 16.5599C16.0742 16.2669 15.4595 16.1269 13.828 15.9234C13.0164 15.8221 11.997 15.6457 11.4571 15.5132C10.1312 15.1876 9.46477 15.0814 8.7574 15.0829C7.32489 15.086 5.89325 15.473 4.74653 16.167C4.4771 16.3301 4.18488 16.5071 4.09703 16.5604C3.96493 16.6407 3.93181 16.6419 3.90492 16.5671C3.83122 16.3624 3.45786 16.0186 3.13411 15.8572C2.83163 15.7065 2.70428 15.6851 2.1097 15.6851C1.27097 15.6851 0.905921 15.7986 0.511768 16.1816C0.00469363 16.6744 -0.00154304 16.7199 0.000133352 19.9048C0.00154152 22.5641 0.00791155 22.7063 0.138201 22.9942C0.315026 23.3848 0.559176 23.6382 0.951988 23.8386C1.23154 23.9813 1.35734 24 2.03608 24C2.63569 24 2.86763 23.9726 3.09495 23.8752C3.42084 23.7355 3.85322 23.2947 3.99336 22.9592C4.07182 22.7715 4.14954 22.7172 4.50654 22.6006C5.34997 22.3254 6.06062 22.2373 7.10656 22.2784C8.08007 22.3167 8.64052 22.4113 10.3588 22.8277C11.2358 23.0402 12.4359 23.1198 12.921 22.9976C13.3471 22.8903 15.2658 21.9416 16.5949 21.181C19.5939 19.4648 22.0401 17.5219 22.7939 16.2576C23.1024 15.7401 23.1563 15.1884 22.9304 14.8587C22.8469 14.7369 22.6849 14.5828 22.5702 14.5163C22.3271 14.375 21.6701 14.3211 21.3068 14.4125ZM22.1551 15.1894C22.4955 15.32 22.0463 16.0996 21.1146 16.9952C19.5916 18.4591 17.0807 20.1183 14.2265 21.5469C12.4657 22.4283 12.3465 22.4403 10.1591 21.9559C8.09536 21.499 7.5791 21.4323 6.436 21.4752C5.69913 21.5028 5.30491 21.5532 4.80802 21.683C4.4474 21.7772 4.13814 21.8542 4.1207 21.8542C4.10334 21.8542 4.08905 20.902 4.08905 19.7382V17.6221L4.29605 17.4331C4.61269 17.1439 5.59485 16.5806 6.16778 16.3597C7.06411 16.014 7.94931 15.8689 8.95059 15.9034C9.6933 15.929 10.0109 15.9791 11.0964 16.2421C11.949 16.4486 12.8359 16.6081 13.7777 16.7244C14.5516 16.82 15.3211 16.9319 15.4876 16.9731C16.3944 17.1977 16.8255 17.6234 16.6284 18.0994C16.4481 18.5346 15.6856 18.6378 13.8591 18.4742C12.2271 18.3281 10.9879 18.3355 10.2246 18.496C9.15377 18.7212 8.67029 19.0391 8.8382 19.4076C8.95112 19.6553 9.18508 19.6773 9.66735 19.4855C10.5374 19.1396 11.5517 19.0909 13.9835 19.2785C15.8866 19.4253 16.5265 19.3351 17.0535 18.8458C17.344 18.5761 17.4529 18.3102 17.4602 17.8527L17.4667 17.4382L17.9696 17.0777C19.7973 15.7678 21.5738 14.9663 22.1551 15.1894Z" fill="white"/>
</svg>
