<svg width="15" height="15" viewBox="0 0 15 15" fill="none" xmlns="http://www.w3.org/2000/svg">
<path d="M0.0391016 5.75385C0.137295 5.45012 0.406695 5.23439 0.725421 5.20567L5.05483 4.81255L6.7668 0.805532C6.89303 0.511869 7.18051 0.321777 7.49992 0.321777C7.81934 0.321777 8.10682 0.511869 8.23305 0.806218L9.94502 4.81255L14.2751 5.20567C14.5933 5.23508 14.862 5.45012 14.9607 5.75385C15.0595 6.05759 14.9683 6.39073 14.7276 6.60074L11.4551 9.47076L12.4201 13.7215C12.4907 14.0341 12.3694 14.3572 12.1101 14.5446C11.9707 14.6453 11.8076 14.6966 11.6431 14.6966C11.5013 14.6966 11.3607 14.6584 11.2345 14.5829L7.49992 12.3509L3.76677 14.5829C3.49359 14.7472 3.14923 14.7322 2.89047 14.5446C2.63103 14.3566 2.50983 14.0334 2.58044 13.7215L3.54543 9.47076L0.27291 6.60131C0.0322351 6.39073 -0.0596638 6.05816 0.0391016 5.75385Z" fill="#CAC9C9"/>
</svg>
